<svg xmlns="http://www.w3.org/2000/svg" width="31.382" height="31.715" viewBox="0 0 31.382 31.715">
  <g id="beer_1_" data-name="beer (1)" transform="translate(0.004)">
    <path id="Path_10922" data-name="Path 10922" d="M15.877,199.863l.479-2.733s-4.347-12.669-4.376-12.838a3.377,3.377,0,0,1-.025-.986l-5.265-.756-.148.847-2.114-.37a2.576,2.576,0,0,0-2.984,2.1l-1.41,8.044a2.579,2.579,0,0,0,2.1,2.982l2.114.371-.223,1.27a.86.86,0,1,0-.3,1.693l11.851,2.073a.86.86,0,1,0,.3-1.694ZM4.543,194.826l-1.693-.3A1.289,1.289,0,0,1,1.8,193.039l1.259-7.2a1.288,1.288,0,0,1,1.492-1.048l1.693.3Zm0,0" transform="translate(0 -169.854)" fill="#e2e2e2"/>
    <path id="Path_10923" data-name="Path 10923" d="M75.7,185.409c-.286.1-.566.208-.852.289-.127.036-.215.068-.243-.1a3.347,3.347,0,0,1-.023-1.022.34.34,0,0,1,.012-.052l-4.723-.57-2.559,14.958a.556.556,0,0,0,.462.637l9.644,1.53a.556.556,0,0,0,.636-.456l.546-3.3L75.785,185.76a2.341,2.341,0,0,1-.082-.35Zm0,0" transform="translate(-62.629 -171.16)" fill="#f4c734"/>
    <path id="Path_10924" data-name="Path 10924" d="M173.2,156.028l4.981,14.645a.86.86,0,0,0,.554,1.627l11.392-3.875a.86.86,0,0,0-.554-1.627l-.5-1.466,1.712-.582a2.579,2.579,0,0,0,1.614-3.272l-2.629-7.73a2.579,2.579,0,0,0-3.272-1.611l-1.712.585-.194-.568Zm16.627,7.233-1.305.445-3.183-9.359,1.305-.445a1.289,1.289,0,0,1,1.635.805l2.353,6.917a1.288,1.288,0,0,1-.8,1.635Zm0,0" transform="translate(-161.161 -141.428)" fill="#e2e2e2"/>
    <path id="Path_10925" data-name="Path 10925" d="M190.113,156.625l-10.445,3.554,4.877,14.024a.557.557,0,0,0,.7.345l9.258-3.1a.556.556,0,0,0,.351-.7Zm0,0" transform="translate(-167.176 -145.732)" fill="#f4c734"/>
    <path id="Path_10926" data-name="Path 10926" d="M101.512,145.147a2.536,2.536,0,0,1,2.626-2.221,2.662,2.662,0,0,1,.162-.223,2.027,2.027,0,0,0-.208-.056,5.145,5.145,0,0,0-1.87.111,3.436,3.436,0,0,0-5.978,1.665l5.25,1.028c0-.1,0-.2.017-.3Zm0,0" transform="translate(-89.556 -131.731)" fill="#f9f2cc"/>
    <path id="Path_10927" data-name="Path 10927" d="M293.449,1.113A1.113,1.113,0,1,1,292.336,0,1.113,1.113,0,0,1,293.449,1.113Zm0,0" transform="translate(-270.972)" fill="#f9f2cc"/>
    <path id="Path_10928" data-name="Path 10928" d="M207.674,42.226A2.226,2.226,0,1,1,205.449,40,2.226,2.226,0,0,1,207.674,42.226Zm0,0" transform="translate(-189.093 -37.218)" fill="#f9f2cc"/>
    <path id="Path_10929" data-name="Path 10929" d="M102.561,57.669A1.669,1.669,0,1,1,100.892,56,1.669,1.669,0,0,1,102.561,57.669Zm0,0" transform="translate(-92.326 -52.105)" fill="#f9f2cc"/>
    <path id="Path_10930" data-name="Path 10930" d="M61.448,1.113A1.113,1.113,0,1,1,60.336,0,1.113,1.113,0,0,1,61.448,1.113Zm0,0" transform="translate(-55.108)" fill="#f9f2cc"/>
    <g id="Group_3673" data-name="Group 3673" transform="translate(6.671 15.172)">
      <path id="Path_10931" data-name="Path 10931" d="M263.452,233.172a.553.553,0,0,0-.295-.324,1.29,1.29,0,0,1-.452.268,1.3,1.3,0,0,1-.3.06.545.545,0,0,0-.008.355l3.24,9.524a.556.556,0,1,0,1.053-.358Zm0,0" transform="translate(-250.8 -231.825)" fill="#e0b730"/>
      <path id="Path_10932" data-name="Path 10932" d="M221.748,246.043a.556.556,0,0,1,.706.347l3.24,9.524a.556.556,0,1,1-1.053.358l-3.24-9.524a.556.556,0,0,1,.347-.706Zm0,0" transform="translate(-212.65 -244.075)" fill="#e0b730"/>
      <path id="Path_10933" data-name="Path 10933" d="M303.637,218.176a.556.556,0,0,1,.706.347l3.24,9.524a.556.556,0,1,1-1.053.358l-3.24-9.524A.556.556,0,0,1,303.637,218.176Zm0,0" transform="translate(-288.844 -218.146)" fill="#e0b730"/>
      <path id="Path_10934" data-name="Path 10934" d="M138.59,259.261l1.733-9.91a.557.557,0,0,1,.644-.452h0a.556.556,0,0,1,.452.644l-1.733,9.91a.556.556,0,0,1-.644.452h0A.556.556,0,0,1,138.59,259.261Zm0,0" transform="translate(-135.619 -246.753)" fill="#e0b730"/>
      <path id="Path_10935" data-name="Path 10935" d="M181.119,326.4l.9-5.447a.556.556,0,1,1,1.1.181l-.9,5.447a.556.556,0,1,1-1.1-.181Zm0,0" transform="translate(-175.19 -313.372)" fill="#e0b730"/>
      <path id="Path_10936" data-name="Path 10936" d="M95.985,251.807l1.733-9.909a.556.556,0,0,1,.644-.452h0a.556.556,0,0,1,.452.644L97.082,252a.557.557,0,0,1-.644.452h0a.556.556,0,0,1-.452-.644Zm0,0" transform="translate(-95.977 -239.817)" fill="#e0b730"/>
    </g>
    <path id="Path_10937" data-name="Path 10937" d="M66.87,411.976a.3.3,0,0,1-.047,0L55.453,410.06a.278.278,0,0,1-.228-.321.284.284,0,0,1,.321-.228l11.372,1.913a.278.278,0,0,1-.046.553Zm0,0" transform="translate(-51.384 -381.026)" fill="#ccc"/>
    <path id="Path_10938" data-name="Path 10938" d="M245.975,374.808a.278.278,0,0,1-.09-.542l10.954-3.756a.278.278,0,0,1,.18.527l-10.954,3.756a.284.284,0,0,1-.09.015Zm0,0" transform="translate(-228.611 -344.727)" fill="#ccc"/>
    <path id="Path_10939" data-name="Path 10939" d="M171.588,125.7a3.368,3.368,0,0,0,.023,1.022c.029.167.116.137.243.1.308-.088.612-.208.92-.313a.557.557,0,0,1,.706.347l.351,1.031a1.34,1.34,0,0,0,1.532.911,1.289,1.289,0,0,0,.933-1.672l.253.744a1.34,1.34,0,0,0,1.531.911,1.29,1.29,0,0,0,.934-1.672l-.652-1.914a.556.556,0,0,1,.348-.706l4.355-1.482a3.436,3.436,0,0,0-6.163-.723,2.57,2.57,0,0,0-2.688,1.193,2.559,2.559,0,0,0-2.626,2.221Zm0,0" transform="translate(-159.631 -112.289)" fill="#f9f2cc"/>
  </g>
</svg>
