<svg id="coupon" xmlns="http://www.w3.org/2000/svg" width="15.561" height="11.049" viewBox="0 0 15.561 11.049">
  <g id="Group_2294" data-name="Group 2294" transform="translate(0 0)">
    <g id="Group_2293" data-name="Group 2293">
      <path id="Path_9288" data-name="Path 9288" d="M15.113,107.306a.5.5,0,0,0,.449-.535V103.92a.5.5,0,0,0-.449-.535H.449A.5.5,0,0,0,0,103.92v2.851a.5.5,0,0,0,.449.535,1.629,1.629,0,0,1,0,3.208.5.5,0,0,0-.449.535V113.9a.5.5,0,0,0,.449.535H15.113a.5.5,0,0,0,.449-.535v-2.851a.5.5,0,0,0-.449-.535,1.629,1.629,0,0,1,0-3.208Zm-.449,4.223v1.836H5.237v-1.6a.5.5,0,0,0-.449-.535.5.5,0,0,0-.449.535v1.6H.9v-1.836a2.809,2.809,0,0,0,0-5.239v-1.836H4.339v1.6a.5.5,0,0,0,.449.535.5.5,0,0,0,.449-.535v-1.6h9.427v1.836a2.809,2.809,0,0,0,0,5.239Z" transform="translate(0 -103.385)" fill="#cdcdd8"/>
    </g>
  </g>
  <g id="Group_2296" data-name="Group 2296" transform="translate(4.339 4.477)">
    <g id="Group_2295" data-name="Group 2295">
      <path id="Path_9289" data-name="Path 9289" d="M143.218,221.538a.449.449,0,0,0-.449.449v1.2a.449.449,0,1,0,.9,0v-1.2A.449.449,0,0,0,143.218,221.538Z" transform="translate(-142.769 -221.538)" fill="#cdcdd8"/>
    </g>
  </g>
</svg>
