<svg xmlns="http://www.w3.org/2000/svg" width="29.012" height="31.279" viewBox="0 0 29.012 31.279">
  <g id="dinner" transform="translate(-24.521 -2.25)">
    <path id="Path_4119" data-name="Path 4119" d="M48.9,33.672H43.3a3.586,3.586,0,0,0,1.077-2.561V27.893h3.442v3.218A3.586,3.586,0,0,0,48.9,33.672Z" transform="translate(-16.423 -22.425)" fill="#13bf6d"/>
    <path id="Path_4120" data-name="Path 4120" d="M32.323,92.57l1.5,3.348H27.572a.552.552,0,0,1-.552-.553V77.308a3.59,3.59,0,0,1,1.558-2.959,3.562,3.562,0,0,0,.484-.4h5.6a3.629,3.629,0,0,0,.483.4A3.583,3.583,0,0,1,36.7,77.308v8.859a8.037,8.037,0,0,0-1.768,2.3,8.335,8.335,0,0,0-.911,4.1Z" transform="translate(-2.185 -62.703)" fill="#139c6d"/>
    <path id="Path_4121" data-name="Path 4121" d="M37.761,194.09H33.834a.314.314,0,0,1-.314-.314v-6.323a.314.314,0,1,1,.627,0v6.009h3.614a.314.314,0,1,1,0,.627Z" transform="translate(-7.87 -161.69)" fill="#13bf6d"/>
    <path id="Path_4122" data-name="Path 4122" d="M33.834,82.42a.314.314,0,0,1-.314-.314V80.08a2.765,2.765,0,0,1,1.2-2.286,4.521,4.521,0,0,0,.681-.578.314.314,0,0,1,.453.434,5.155,5.155,0,0,1-.778.661,2.139,2.139,0,0,0-.933,1.769v2.026A.314.314,0,0,1,33.834,82.42Z" transform="translate(-7.87 -65.475)" fill="#13bf6d"/>
    <path id="Path_4123" data-name="Path 4123" d="M36.691,116.86v6.832a8.037,8.037,0,0,0-1.768,2.3H27.01V116.86Z" transform="translate(-2.177 -100.229)" fill="#f9e5af"/>
    <path id="Path_4124" data-name="Path 4124" d="M33.834,124.12a.314.314,0,0,1-.314-.314v-9.132a.314.314,0,0,1,.627,0v9.132A.314.314,0,0,1,33.834,124.12Z" transform="translate(-7.87 -98.043)" fill="#fff"/>
    <path id="Path_4125" data-name="Path 4125" d="M50.235,142.627a1.186,1.186,0,0,0-1.186,1.186,1.187,1.187,0,1,0-1.077,1.181,1.186,1.186,0,1,0,2.154,0,1.186,1.186,0,1,0,.11-2.367Z" transform="translate(-19.374 -122.763)" fill="#8c72e8"/>
    <path id="Path_4126" data-name="Path 4126" d="M54.684,4.75H52.5a.627.627,0,0,0-.627.627V7.654h3.443V5.377A.627.627,0,0,0,54.684,4.75Z" transform="translate(-23.916 -2.186)" fill="#f0c020"/>
    <path id="Path_4127" data-name="Path 4127" d="M69.28,222.345l1.5,3.348H88.562l1.5-3.348Z" transform="translate(-39.143 -192.478)" fill="#fc5d3d"/>
    <path id="Path_4128" data-name="Path 4128" d="M101.172,230.56H86.556a.314.314,0,0,1,0-.627h14.413l.4-.9a.314.314,0,0,1,.573.256l-.487,1.09A.314.314,0,0,1,101.172,230.56Zm-15.871,0h-.45a.314.314,0,1,1,0-.627h.45a.314.314,0,1,1,0,.627Z" transform="translate(-52.485 -198.161)" fill="#ffcbc2"/>
    <path id="Path_4129" data-name="Path 4129" d="M99.767,162.515H82.776a8.335,8.335,0,0,1,.911-4.1,8.037,8.037,0,0,1,1.768-2.3,8.77,8.77,0,0,1,5.985-2.181l.543,0h2.947a2.549,2.549,0,0,0,.045,3.2c1.11,1.112,3.212.567,4.261-1a5.921,5.921,0,0,1,.509.788C100.905,159.073,100.155,161.045,99.767,162.515Z" transform="translate(-50.941 -132.648)" fill="#f0c020"/>
    <path id="Path_4130" data-name="Path 4130" d="M174.6,156.946c-1.4,1.751-3.936,2.288-5.392.828a3.288,3.288,0,0,1-.433-3.825h1.009a2.549,2.549,0,0,0,.045,3.2c1.11,1.112,3.212.567,4.261-1A5.922,5.922,0,0,1,174.6,156.946Z" transform="translate(-125.795 -132.665)" fill="#e8a61f"/>
    <path id="Path_4131" data-name="Path 4131" d="M161.174,131.752a3.68,3.68,0,0,0-2.036,1.522H156.19a3.58,3.58,0,0,1,.253-.878c.837-1.942,3.12-2.775,4.3-1.429A2.156,2.156,0,0,1,161.174,131.752Z" transform="translate(-115.147 -111.989)" fill="#f0c020"/>
    <path id="Path_4132" data-name="Path 4132" d="M180.227,144.83c-1.049,1.562-3.151,2.107-4.261,1a2.549,2.549,0,0,1-.045-3.2,3.68,3.68,0,0,1,2.036-1.522,2.276,2.276,0,0,1,2.251.482A2.567,2.567,0,0,1,180.227,144.83Z" transform="translate(-131.931 -121.336)" fill="#f0c020"/>
    <path id="Path_4133" data-name="Path 4133" d="M97.213,173.686a.314.314,0,0,1-.227-.381q.033-.128.07-.254a.314.314,0,1,1,.6.178q-.034.114-.063.23a.314.314,0,0,1-.381.227Zm.469-1.429a.313.313,0,0,1-.13-.424,6.6,6.6,0,0,1,4.24-3.293.314.314,0,1,1,.158.607,5.969,5.969,0,0,0-3.844,2.98A.313.313,0,0,1,97.682,172.257Z" transform="translate(-63.364 -145.415)" fill="#f9e5af"/>
    <path id="Path_4134" data-name="Path 4134" d="M55.547,38.927a.314.314,0,0,1-.166-.412,4.68,4.68,0,0,0,.354-2.055.314.314,0,0,1,.627,0,5.272,5.272,0,0,1-.4,2.3A.314.314,0,0,1,55.547,38.927Zm.5-3.408a.314.314,0,0,1-.314-.314v-.5a.314.314,0,0,1,.627,0v.5A.314.314,0,0,1,56.049,35.519Z" transform="translate(-26.966 -28.107)" fill="#76ffba"/>
    <g id="Group_2480" data-name="Group 2480" transform="translate(34.849 8.854)">
      <path id="Path_4135" data-name="Path 4135" d="M132.81,97.221c-.538-.178-1.094-.333-1.406-1.677-.287,1.238-.748,1.46-1.406,1.677A1.867,1.867,0,0,1,131.4,98.9C131.7,97.63,132.185,97.427,132.81,97.221Z" transform="translate(-127.092 -90.442)" fill="#f0c020"/>
      <path id="Path_4136" data-name="Path 4136" d="M109.641,56.561c-.538-.178-1.094-.333-1.406-1.677-.287,1.238-.748,1.46-1.406,1.677a1.867,1.867,0,0,1,1.406,1.677C108.53,56.97,109.016,56.767,109.641,56.561Z" transform="translate(-106.83 -54.884)" fill="#f0c020"/>
      <path id="Path_4137" data-name="Path 4137" d="M226.481,82.9c-.538-.178-1.094-.333-1.406-1.677-.287,1.238-.748,1.46-1.406,1.677a1.867,1.867,0,0,1,1.406,1.677C225.37,83.311,225.856,83.108,226.481,82.9Z" transform="translate(-209.009 -77.92)" fill="#f0c020"/>
    </g>
    <path id="Path_4138" data-name="Path 4138" d="M161.174,136.346a3.68,3.68,0,0,0-2.036,1.522H156.19a3.58,3.58,0,0,1,.253-.878h2.25a4.6,4.6,0,0,1,2.047-1.429A2.156,2.156,0,0,1,161.174,136.346Z" transform="translate(-115.147 -116.583)" fill="#e8a61f"/>
    <path id="Path_4139" data-name="Path 4139" d="M45.681,130.487a1.5,1.5,0,0,0-.3,2.969,1.5,1.5,0,1,0,2.973,0,1.5,1.5,0,1,0-1.192-2.672,3.732,3.732,0,0,0-.224-.941l.331-.135a.314.314,0,0,0-.237-.581l-1.252.511a.314.314,0,0,0,.237.581l.34-.139a3.107,3.107,0,0,1,.169.668A1.488,1.488,0,0,0,45.681,130.487Zm-.875,1.5a.873.873,0,0,1,1.747,0v0a.873.873,0,0,1-1.746,0Zm2.06,2.55a.871.871,0,0,1-.844-1.09,1.5,1.5,0,0,0,.844-.546,1.5,1.5,0,0,0,.844.546A.872.872,0,0,1,46.866,134.536Zm1.187-3.422a.872.872,0,1,1-.082,1.74h0a.872.872,0,0,1-.791-.866v0A.875.875,0,0,1,48.054,131.114Z" transform="translate(-17.192 -110.936)"/>
    <path id="Path_4140" data-name="Path 4140" d="M53.219,29.553H49.237c.58-2.077.925-3.981-.562-6.074a2.9,2.9,0,0,0,.029-3.216l2.212-2.212.3.3a.314.314,0,1,0,.444-.444l-1.047-1.047a.314.314,0,1,0-.444.444l.3.3-2.21,2.21a2.6,2.6,0,0,0-2.039-.42,2.321,2.321,0,0,0-.632-.861l1.658-2.65.361.226a.314.314,0,1,0,.333-.532L46.688,14.8a.314.314,0,1,0-.333.532l.362.226-1.658,2.65c-1.685-.75-3.808.708-4.274,2.765H40.5A9.176,9.176,0,0,0,34.828,22.8V14.6a3.894,3.894,0,0,0-1.7-3.217,3.486,3.486,0,0,1-.44-.364,3.288,3.288,0,0,1-.982-2.338V3.191a.942.942,0,0,0-.941-.941H28.58a.942.942,0,0,0-.941.941l0,5.495a3.291,3.291,0,0,1-1.418,2.7.314.314,0,1,0,.356.517,3.8,3.8,0,0,0,.518-.429,3.9,3.9,0,0,0,1.171-2.784v-2.9h2.814v2.9a3.916,3.916,0,0,0,1.7,3.218A3.268,3.268,0,0,1,34.2,14.6v1.713H25.148V14.6a3.273,3.273,0,0,1,.12-.882.313.313,0,0,0-.217-.386.318.318,0,0,0-.386.218,3.906,3.906,0,0,0-.144,1.05V32.662a.868.868,0,0,0,.866.867H43.023a.314.314,0,1,0,0-.627H31.836l-1.215-2.721H50.432L49.216,32.9H45.532a.314.314,0,0,0,0,.627H49.42a.312.312,0,0,0,.286-.186l1.412-3.163h2.1a.314.314,0,1,0,0-.627ZM31.082,5.154H28.266V3.191a.314.314,0,0,1,.314-.314h2.188a.314.314,0,0,1,.314.314ZM48.056,20.467a2.256,2.256,0,0,1-.02,2.852c-.941,1.4-2.818,1.911-3.779.948-.9-.9-.5-2.449.5-3.418A2.411,2.411,0,0,1,48.056,20.467Zm-2.442-.9a4.088,4.088,0,0,0-1.788,1.4h-2.4C42.043,18.725,44.73,17.78,45.613,19.57ZM43.456,21.6a2.734,2.734,0,0,0,.358,3.111c1.222,1.223,3.323.669,4.474-.686,1.246,1.9.838,3.573.3,5.529H32.144s0,0,0-.006A7.974,7.974,0,0,1,40.5,21.6c.494,0,.091,0,2.958,0ZM34.2,16.945v6.381a8.453,8.453,0,0,0-1.641,2.124H25.148V16.945H34.2ZM25.387,32.9a.239.239,0,0,1-.238-.24V26.077h7.1a8.779,8.779,0,0,0-.733,3.476h-3.68a.314.314,0,1,0,0,.627h2.1L31.149,32.9H25.387Z" fill="none"/>
    <circle id="Ellipse_388" data-name="Ellipse 388" cx="0.314" cy="0.314" r="0.314" transform="translate(43.964 32.902)"/>
    <path id="Path_4141" data-name="Path 4141" d="M29.938,81.692a.314.314,0,0,0,.509.366h0a.316.316,0,0,0-.073-.437A.323.323,0,0,0,29.938,81.692Z" transform="translate(-4.685 -69.362)"/>
    <path id="Path_4142" data-name="Path 4142" d="M154,182.481a.314.314,0,0,0,.314-.314v-.2a.314.314,0,0,0-.627,0v.2A.314.314,0,0,0,154,182.481Z" transform="translate(-112.962 -156.892)"/>
    <path id="Path_4143" data-name="Path 4143" d="M127.814,197.981a.314.314,0,0,0,.314-.314v-.2a.314.314,0,0,0-.627,0v.2A.314.314,0,0,0,127.814,197.981Z" transform="translate(-90.057 -170.447)"/>
    <path id="Path_4144" data-name="Path 4144" d="M199.814,154.338a.314.314,0,0,0,.314-.314v-.2a.314.314,0,1,0-.627,0v.2A.314.314,0,0,0,199.814,154.338Z" transform="translate(-153.023 -132.28)"/>
    <path id="Path_4145" data-name="Path 4145" d="M186.907,198.78a.314.314,0,0,0,.314-.314v-.2a.314.314,0,0,0-.627,0v.2A.314.314,0,0,0,186.907,198.78Z" transform="translate(-141.736 -171.146)"/>
    <path id="Path_4146" data-name="Path 4146" d="M127.561,95.209c.922.3,1.026.754,1.184,1.434a.336.336,0,0,0,.654,0c.262-1.129.649-1.257,1.184-1.434a.336.336,0,0,0,0-.637c-.511-.169-.915-.275-1.184-1.434a.336.336,0,0,0-.654,0c-.262,1.13-.649,1.257-1.184,1.434A.336.336,0,0,0,127.561,95.209Zm1.512-.995a1.831,1.831,0,0,0,.586.68,1.779,1.779,0,0,0-.58.656,1.861,1.861,0,0,0-.613-.651A1.784,1.784,0,0,0,129.073,94.214Z" transform="translate(-89.91 -79.257)"/>
    <path id="Path_4147" data-name="Path 4147" d="M107.413,53.911c-.511-.169-.915-.275-1.184-1.434a.336.336,0,0,0-.654,0c-.262,1.13-.649,1.257-1.184,1.434a.336.336,0,0,0,0,.637c.922.3,1.026.754,1.184,1.434a.336.336,0,0,0,.654,0c.262-1.129.649-1.257,1.184-1.434A.336.336,0,0,0,107.413,53.911Zm-1.5.978a1.861,1.861,0,0,0-.613-.651,1.783,1.783,0,0,0,.607-.685,1.83,1.83,0,0,0,.586.68A1.781,1.781,0,0,0,105.91,54.889Z" transform="translate(-69.648 -43.698)"/>
    <path id="Path_4148" data-name="Path 4148" d="M221.232,80.889c.922.3,1.026.754,1.184,1.434a.336.336,0,0,0,.654,0c.262-1.129.649-1.257,1.184-1.434a.336.336,0,0,0,0-.637c-.511-.169-.915-.275-1.184-1.434a.336.336,0,0,0-.654,0c-.262,1.13-.649,1.257-1.184,1.434A.336.336,0,0,0,221.232,80.889Zm1.512-.995a1.832,1.832,0,0,0,.587.68,1.78,1.78,0,0,0-.58.656,1.861,1.861,0,0,0-.613-.651,1.784,1.784,0,0,0,.607-.685Z" transform="translate(-171.827 -66.734)"/>
    <path id="Path_4149" data-name="Path 4149" d="M58.694,11.25a.314.314,0,0,0-.314.314v.11a.314.314,0,1,0,.627,0v-.11A.314.314,0,0,0,58.694,11.25Z" transform="translate(-29.61 -7.871)"/>
    <path id="Path_4150" data-name="Path 4150" d="M67.564,15.125a.314.314,0,0,0-.314.314v.11a.314.314,0,0,0,.627,0v-.11A.314.314,0,0,0,67.564,15.125Z" transform="translate(-37.367 -11.259)"/>
  </g>
</svg>
