<svg xmlns="http://www.w3.org/2000/svg" width="28.189" height="32.644" viewBox="0 0 28.189 32.644">
  <g id="drug" transform="translate(-34.937 0)">
    <circle id="Ellipse_403" data-name="Ellipse 403" cx="1.006" cy="1.006" r="1.006" transform="translate(48.168 26.232)" fill="#7fdbd5"/>
    <g id="Group_3674" data-name="Group 3674" transform="translate(49.463 21.892)">
      <circle id="Ellipse_404" data-name="Ellipse 404" cx="0.958" cy="0.958" r="0.958" transform="translate(2.969 5.543)" fill="#38648c"/>
      <circle id="Ellipse_405" data-name="Ellipse 405" cx="0.958" cy="0.958" r="0.958" transform="translate(0)" fill="#38648c"/>
    </g>
    <circle id="Ellipse_406" data-name="Ellipse 406" cx="1.207" cy="1.207" r="1.207" transform="translate(52.908 23.429)" fill="#7fdbd5"/>
    <circle id="Ellipse_407" data-name="Ellipse 407" cx="1.293" cy="1.293" r="1.293" transform="translate(49.128 30.057)" fill="#f28b74"/>
    <path id="Path_10940" data-name="Path 10940" d="M129.937,68.539l-4.38,3.9,5.549,6.231,4.38-3.9a4.172,4.172,0,0,0,.341-5.89h0A4.172,4.172,0,0,0,129.937,68.539Z" transform="translate(-84.842 -63.18)" fill="#7fdbd5"/>
    <path id="Path_10941" data-name="Path 10941" d="M36.334,149.133l4.38-3.9,5.549,6.231-4.38,3.9a4.172,4.172,0,0,1-5.89-.341h0A4.172,4.172,0,0,1,36.334,149.133Z" transform="translate(0 -135.973)" fill="#287d99"/>
    <path id="Path_10942" data-name="Path 10942" d="M51.2,68.888a4.163,4.163,0,0,0-3.3-1.393,4.161,4.161,0,0,0,.448,3.434l1.381,2.213a.9.9,0,0,1-.185,1.169,39.106,39.106,0,0,1-7.619,5.2c-2.644,1.083-4.954-1.657-4.581-3.868l-.747.665a4.172,4.172,0,1,0,5.5,6.273l8.76-7.8a4.172,4.172,0,0,0,.341-5.89Z" transform="translate(-0.212 -63.188)" opacity="0.1"/>
    <path id="Path_10943" data-name="Path 10943" d="M249.373,6.382l3.106,4.975,7.078-4.419-3.106-4.975A4.172,4.172,0,0,0,250.7.633h0A4.172,4.172,0,0,0,249.373,6.382Z" transform="translate(-200.172 0)" fill="#76b7eb"/>
    <path id="Path_10944" data-name="Path 10944" d="M310.5,118.223l-3.106-4.975,7.078-4.419,3.106,4.975a4.172,4.172,0,0,1-1.33,5.748h0A4.172,4.172,0,0,1,310.5,118.223Z" transform="translate(-255.086 -101.891)" fill="#d1eff2"/>
    <path id="Path_10945" data-name="Path 10945" d="M261.334,26.778a4.2,4.2,0,0,0,.525-.388c-4.96-.729-11.426-12.569-11.134-16.654l-.022.013h0a4.172,4.172,0,0,0-1.33,5.748l6.212,9.951a4.172,4.172,0,0,0,5.748,1.33Z" transform="translate(-200.171 -9.116)" opacity="0.1"/>
    <path id="Path_10946" data-name="Path 10946" d="M130.257,238.346l5.08,2.1a.367.367,0,0,0,.48-.2l2.912-7.03a.367.367,0,0,0-.2-.48l-5.08-2.1A4.172,4.172,0,0,0,128,232.9h0A4.172,4.172,0,0,0,130.257,238.346Z" transform="translate(-86.831 -215.635)" fill="#f28b74"/>
    <path id="Path_10947" data-name="Path 10947" d="M135.818,256.994l.717-1.731c-6-1.142-8.014-4.687-7.544-7.061a4.154,4.154,0,0,0-.99,1.436h0a4.172,4.172,0,0,0,2.258,5.451l5.08,2.1A.367.367,0,0,0,135.818,256.994Z" transform="translate(-86.832 -232.377)" opacity="0.1"/>
    <path id="Path_10948" data-name="Path 10948" d="M310.02,238.346l-5.08,2.1a.367.367,0,0,1-.48-.2l-2.912-7.03a.367.367,0,0,1,.2-.48l5.08-2.1a4.172,4.172,0,0,1,5.451,2.258h0A4.172,4.172,0,0,1,310.02,238.346Z" transform="translate(-249.587 -215.635)" fill="#76b7eb"/>
  </g>
</svg>
