<svg xmlns="http://www.w3.org/2000/svg" width="30.091" height="27.181" viewBox="0 0 30.091 27.181">
  <g id="food-and-restaurant_2_" data-name="food-and-restaurant (2)" transform="translate(0.009 -0.017)">
    <path id="Path_3881" data-name="Path 3881" d="M143.947,218.462l.047-.009a2.114,2.114,0,0,0,1.663-2.484l-1.2-6.063-2.12.42Zm0,0" transform="translate(-133.095 -196.249)" fill="#fcda4f"/>
    <path id="Path_3882" data-name="Path 3882" d="M115.478,23.647c-2.428-.051-4.457,2.829-4.533,6.432s1.831,6.566,4.259,6.617,4.457-2.829,4.533-6.432-1.831-6.566-4.259-6.617Zm0,0" transform="translate(-103.742 -22.094)" fill="#ccc033"/>
    <path id="Path_3883" data-name="Path 3883" d="M117.645,28.608a9.87,9.87,0,0,0-2.4-4.874c-2.376.136-4.291,3.056-4.3,6.6-.01,3.469,1.806,6.271,4.108,6.435,2.172-1.167,3.31-4.537,2.592-8.163Zm0,0" transform="translate(-103.744 -22.176)" fill="#99af17"/>
    <path id="Path_3884" data-name="Path 3884" d="M113.438,224.5l-.047.009a2.114,2.114,0,0,1-2.484-1.663l-1.2-6.063,2.12-.42Zm0,0" transform="translate(-102.586 -202.287)" fill="#fcda4f"/>
    <path id="Path_3885" data-name="Path 3885" d="M8.823,53.327c-1.443-3.3-4.417-5.192-6.642-4.22S-.679,53.546.764,56.848s4.417,5.192,6.642,4.22,2.859-4.438,1.416-7.741Zm0,0" transform="translate(0 -45.662)" fill="#99af17"/>
    <path id="Path_3886" data-name="Path 3886" d="M51.73,6.6C50.908,2.446,47.962-.469,45.151.087s-4.424,4.374-3.6,8.527,3.767,7.068,6.579,6.512,4.424-4.374,3.6-8.527Zm0,0" transform="translate(-38.657 -0.002)" fill="#eacf32"/>
    <path id="Path_3887" data-name="Path 3887" d="M44.314,8.064c-.682-3.444.311-6.659,2.274-7.972A3.643,3.643,0,0,0,45.15.085c-2.811.556-4.424,4.374-3.6,8.527s3.767,7.068,6.579,6.512a3.651,3.651,0,0,0,1.327-.555c-2.315-.466-4.458-3.059-5.14-6.5Zm0,0" transform="translate(-38.657 0)" fill="#ccc033"/>
    <path id="Path_3888" data-name="Path 3888" d="M87.058,96.03a3.844,3.844,0,0,1-1.959-.6.39.39,0,0,1,.436-.647,2.889,2.889,0,0,0,1.936.422,2.249,2.249,0,0,0,1.416-1.081.39.39,0,1,1,.656.421,2.994,2.994,0,0,1-1.921,1.426A2.8,2.8,0,0,1,87.058,96.03Zm0,0" transform="translate(-79.416 -87.826)" fill="#ffeea4"/>
    <path id="Path_3889" data-name="Path 3889" d="M82.244,136.621a5.243,5.243,0,0,1-3.012-1.178.39.39,0,0,1,.5-.6,4.141,4.141,0,0,0,3.007.943,3.245,3.245,0,0,0,2.127-1.954.39.39,0,1,1,.7.348,3.97,3.97,0,0,1-2.671,2.371,3.222,3.222,0,0,1-.652.065Zm0,0" transform="translate(-73.963 -124.921)" fill="#ffeea4"/>
    <path id="Path_3890" data-name="Path 3890" d="M109.245,75.258a.536.536,0,0,0-1.044.2l2.592,15.959a.451.451,0,0,0,.037.118,1.026,1.026,0,0,0,1.192.678l.011,0,.013,0a1.009,1.009,0,0,0,.825-1.077.437.437,0,0,0-.01-.121Zm0,0" transform="translate(-101.173 -70.004)" fill="#fff9dc"/>
    <path id="Path_3891" data-name="Path 3891" d="M111.457,91.417a.443.443,0,0,1-.037-.118L108.828,75.34a.473.473,0,0,1,.136-.407.561.561,0,0,0-.332-.034.512.512,0,0,0-.43.565l2.592,15.959a.449.449,0,0,0,.037.118,1.026,1.026,0,0,0,1.192.678l.011,0,.013,0a1.059,1.059,0,0,0,.29-.1,1.009,1.009,0,0,1-.88-.693Zm0,0" transform="translate(-101.173 -70.005)" fill="#fff4c1"/>
    <path id="Path_3892" data-name="Path 3892" d="M278.273,111.842a1.45,1.45,0,0,1-.688-1.725l3.291-9.693a3.29,3.29,0,1,1,5.693,3.152L280.1,111.51a1.449,1.449,0,0,1-1.827.333Zm0,0" transform="translate(-259.485 -91.87)" fill="#ff624b"/>
    <path id="Path_3893" data-name="Path 3893" d="M397.034,29.7h0a1.465,1.465,0,0,0,.26-.34,1.539,1.539,0,0,0-2.691-1.49,1.474,1.474,0,0,0-.15.4h0v0q-.012.058-.02.117l-.459,2.69a.542.542,0,0,0,.883.5l2.046-1.764a1.459,1.459,0,0,0,.13-.112Zm0,0" transform="translate(-368.371 -25.329)" fill="#eacf32"/>
    <g id="Group_2278" data-name="Group 2278" transform="translate(19.383 9.277)">
      <path id="Path_3894" data-name="Path 3894" d="M300.441,228.8a.387.387,0,0,1-.155-.032l-1.655-.719a.39.39,0,1,1,.311-.715l1.655.719a.39.39,0,0,1-.156.748Zm0,0" transform="translate(-298.396 -221.795)" fill="#ff4b34"/>
      <path id="Path_3895" data-name="Path 3895" d="M331.231,206.2a.388.388,0,0,1-.155-.033l-2.152-.934a.39.39,0,0,1,.311-.715l2.152.934a.39.39,0,0,1-.156.748Zm0,0" transform="translate(-326.721 -200.461)" fill="#ff4b34"/>
      <path id="Path_3896" data-name="Path 3896" d="M325.308,166.21a.385.385,0,0,1-.155-.032l-1.655-.719a.39.39,0,1,1,.31-.715l1.655.719a.39.39,0,0,1-.156.748Zm0,0" transform="translate(-321.647 -163.269)" fill="#ff4b34"/>
      <path id="Path_3897" data-name="Path 3897" d="M356.469,144.586a.391.391,0,0,1-.155-.032l-2.968-1.289a.39.39,0,0,1,.31-.715l2.969,1.289a.39.39,0,0,1-.156.748Zm0,0" transform="translate(-349.555 -142.517)" fill="#ff4b34"/>
    </g>
    <path id="Path_3898" data-name="Path 3898" d="M394.678,31.679c0-.009,0-.019,0-.029l.459-2.69c.005-.039.012-.078.02-.117v0h0a1.472,1.472,0,0,1,.15-.4,1.513,1.513,0,0,1,1.9-.649,1.564,1.564,0,0,0-.536-.487,1.519,1.519,0,0,0-2.072.566,1.468,1.468,0,0,0-.15.4h0v0c-.008.039-.015.077-.02.116l-.459,2.69a.536.536,0,0,0,.273.556A.545.545,0,0,0,394.678,31.679Zm0,0" transform="translate(-368.371 -25.33)" fill="#ccc033"/>
    <path id="Path_3899" data-name="Path 3899" d="M359.291,43.373l-.461-2.174a1.2,1.2,0,0,0-.029-.138v0h0a1.249,1.249,0,0,0-.142-.325,1.274,1.274,0,0,0-1.718-.439,1.207,1.207,0,0,0-.407,1.685,1.275,1.275,0,0,0,.228.274h0l0,0c.024.022.049.043.076.063l1.748,1.46a.442.442,0,0,0,.506.045A.418.418,0,0,0,359.291,43.373Zm0,0" transform="translate(-333.198 -37.501)" fill="#fce575"/>
    <path id="Path_3900" data-name="Path 3900" d="M357.715,41.923c-.026-.02-.051-.041-.076-.063l0,0h0a1.269,1.269,0,0,1-.228-.274,1.212,1.212,0,0,1,.12-1.451,1.234,1.234,0,0,0-.589.169,1.207,1.207,0,0,0-.407,1.685,1.275,1.275,0,0,0,.228.274h0l0,0c.024.022.049.043.076.063l1.748,1.46a.442.442,0,0,0,.506.045.418.418,0,0,0,.2-.45l-.037-.174Zm0,0" transform="translate(-333.198 -37.509)" fill="#eacf32"/>
    <path id="Path_3901" data-name="Path 3901" d="M403.534,79.14a1.274,1.274,0,0,0-1.284-1.223,1.252,1.252,0,0,0-.351.053h0l0,0a1.233,1.233,0,0,0-.133.048l-2.087.763a.419.419,0,0,0-.276.406.443.443,0,0,0,.307.4l2.165.706c.03.011.062.022.093.031h0a1.272,1.272,0,0,0,.353.048A1.207,1.207,0,0,0,403.534,79.14Zm0,0" transform="translate(-373.453 -72.838)" fill="#fce575"/>
    <path id="Path_3902" data-name="Path 3902" d="M403.2,88.885a1.27,1.27,0,0,1-.353-.047h0c-.032-.009-.063-.019-.093-.03l-2.165-.707a.442.442,0,0,1-.307-.4.417.417,0,0,1,.073-.25l-.674.246a.418.418,0,0,0-.276.406.442.442,0,0,0,.307.4l2.165.707c.031.011.062.022.093.03h0a1.271,1.271,0,0,0,.353.048,1.223,1.223,0,0,0,.906-.4Zm0,0" transform="translate(-373.453 -81.746)" fill="#eacf32"/>
    <path id="Path_3903" data-name="Path 3903" d="M279.3,110.557l3.291-9.693a3.19,3.19,0,0,1,2.985-2.151l-.029-.017a3.245,3.245,0,0,0-4.675,1.728l-3.291,9.693a1.449,1.449,0,0,0,.688,1.725,1.473,1.473,0,0,0,1.282.074A1.43,1.43,0,0,1,279.3,110.557Zm0,0" transform="translate(-259.484 -91.87)" fill="#ff4b34"/>
    <path id="Path_3904" data-name="Path 3904" d="M229.6,107.839a.374.374,0,0,1-.367-.359l-.163-2.768a.377.377,0,0,1,.367-.406h.326a.377.377,0,0,1,.367.406l-.163,2.768A.374.374,0,0,1,229.6,107.839Zm0,0" transform="translate(-214.19 -97.511)" fill="#bf6c0d"/>
    <path id="Path_3905" data-name="Path 3905" d="M239.831,102.6c2.222,1.231,2.829-1.331,2.965-2.169a.253.253,0,0,0-.209-.294c-.828-.115-3.459-.293-2.942,2.207A.378.378,0,0,0,239.831,102.6Zm0,0" transform="translate(-224.018 -93.557)" fill="#eacf32"/>
    <path id="Path_3906" data-name="Path 3906" d="M229.575,107.479l-.163-2.768a.377.377,0,0,1,.358-.406h-.335a.377.377,0,0,0-.367.406l.163,2.768a.374.374,0,0,0,.367.359.356.356,0,0,0,.172-.044A.384.384,0,0,1,229.575,107.479Zm0,0" transform="translate(-214.19 -97.51)" fill="#8c4c17"/>
    <path id="Path_3907" data-name="Path 3907" d="M146.164,139.544a3.882,3.882,0,0,0-3.289.9,3.883,3.883,0,0,0-3.29-.9c-2.335.5-3.729,3.3-3.115,6.259s3.006,4.942,5.341,4.44a3.5,3.5,0,0,0,1.063-.421,3.5,3.5,0,0,0,1.063.421c2.335.5,4.726-1.486,5.341-4.44S148.5,140.047,146.164,139.544Zm0,0" transform="translate(-127.474 -130.388)" fill="#ff624b"/>
    <path id="Path_3908" data-name="Path 3908" d="M240.314,102.673c-.442-2.137,1.416-2.318,2.482-2.253a.252.252,0,0,0-.209-.289c-.828-.115-3.459-.293-2.942,2.207a.38.38,0,0,0,.186.256,2.925,2.925,0,0,0,.562.244A.387.387,0,0,1,240.314,102.673Zm0,0" transform="translate(-224.018 -93.555)" fill="#ccc033"/>
    <path id="Path_3909" data-name="Path 3909" d="M138.477,145.805c-.591-2.84.675-5.539,2.848-6.19a3.536,3.536,0,0,0-1.741-.069c-2.335.5-3.729,3.3-3.114,6.259s3.006,4.942,5.341,4.44c.09-.019.179-.043.267-.069A5.6,5.6,0,0,1,138.477,145.805Zm0,0" transform="translate(-127.474 -130.39)" fill="#ff4b34"/>
    <path id="Path_3910" data-name="Path 3910" d="M37.008,184.878V170.02a.629.629,0,0,1,.63-.63h2.976a.629.629,0,0,1,.63.63v14.858a.629.629,0,0,1-.63.629H37.637A.629.629,0,0,1,37.008,184.878Zm0,0" transform="translate(-34.612 -158.367)" fill="#db9c2e"/>
    <path id="Path_3911" data-name="Path 3911" d="M361.84,184.878V170.02a.629.629,0,0,1,.63-.63h2.976a.629.629,0,0,1,.63.63v14.858a.629.629,0,0,1-.63.629H362.47A.63.63,0,0,1,361.84,184.878Zm0,0" transform="translate(-338.334 -158.367)" fill="#db9c2e"/>
    <path id="Path_3912" data-name="Path 3912" d="M35.6,195.509H7.658a.65.65,0,0,1-.65-.65v-2.924a.65.65,0,0,1,.65-.65H35.6a.65.65,0,0,1,.65.65v2.924A.65.65,0,0,1,35.6,195.509Zm0,0" transform="translate(-6.561 -178.838)" fill="#ffc34c"/>
    <path id="Path_3913" data-name="Path 3913" d="M35.6,276.509H7.658a.65.65,0,0,1-.65-.65v-2.924a.65.65,0,0,1,.65-.65H35.6a.65.65,0,0,1,.65.65v2.924A.65.65,0,0,1,35.6,276.509Zm0,0" transform="translate(-6.561 -254.575)" fill="#ffc34c"/>
    <path id="Path_3914" data-name="Path 3914" d="M35.6,357.509H7.658a.65.65,0,0,1-.65-.65v-2.924a.65.65,0,0,1,.65-.65H35.6a.65.65,0,0,1,.65.65v2.924A.65.65,0,0,1,35.6,357.509Zm0,0" transform="translate(-6.561 -330.311)" fill="#ffc34c"/>
    <path id="Path_3915" data-name="Path 3915" d="M433.4,367.945a.39.39,0,0,1-.39-.39v-1.885a.39.39,0,1,1,.78,0v1.885A.39.39,0,0,1,433.4,367.945Zm0,0" transform="translate(-404.877 -341.527)" fill="#ffd551"/>
    <path id="Path_3916" data-name="Path 3916" d="M385.308,373.935a.65.65,0,1,1-.65-.65A.65.65,0,0,1,385.308,373.935Zm0,0" transform="translate(-359.062 -349.011)" fill="#ffdf74"/>
    <path id="Path_3917" data-name="Path 3917" d="M385.308,292.935a.65.65,0,1,1-.65-.65A.65.65,0,0,1,385.308,292.935Zm0,0" transform="translate(-359.062 -273.275)" fill="#ffdf74"/>
    <path id="Path_3918" data-name="Path 3918" d="M385.308,211.935a.65.65,0,1,1-.65-.65A.65.65,0,0,1,385.308,211.935Zm0,0" transform="translate(-359.062 -197.539)" fill="#ffdf74"/>
    <path id="Path_3919" data-name="Path 3919" d="M10.907,275.859v-2.924a.65.65,0,0,1,.65-.65h-3.9a.65.65,0,0,0-.65.65v2.924a.65.65,0,0,0,.65.65h3.9A.65.65,0,0,1,10.907,275.859Zm0,0" transform="translate(-6.561 -254.575)" fill="#f9bb32"/>
    <path id="Path_3920" data-name="Path 3920" d="M10.907,356.859v-2.924a.65.65,0,0,1,.65-.65h-3.9a.65.65,0,0,0-.65.65v2.924a.65.65,0,0,0,.65.65h3.9A.65.65,0,0,1,10.907,356.859Zm0,0" transform="translate(-6.561 -330.311)" fill="#f9bb32"/>
    <path id="Path_3921" data-name="Path 3921" d="M10.907,194.859v-2.924a.65.65,0,0,1,.65-.65h-3.9a.65.65,0,0,0-.65.65v2.924a.65.65,0,0,0,.65.65h3.9A.65.65,0,0,1,10.907,194.859Zm0,0" transform="translate(-6.561 -178.838)" fill="#f9bb32"/>
    <path id="Path_3922" data-name="Path 3922" d="M61.308,211.935a.65.65,0,1,1-.65-.65A.65.65,0,0,1,61.308,211.935Zm0,0" transform="translate(-56.117 -197.539)" fill="#ffdf74"/>
    <path id="Path_3923" data-name="Path 3923" d="M61.308,292.935a.65.65,0,1,1-.65-.65A.65.65,0,0,1,61.308,292.935Zm0,0" transform="translate(-56.117 -273.275)" fill="#ffdf74"/>
    <path id="Path_3924" data-name="Path 3924" d="M61.308,373.935a.65.65,0,1,1-.65-.65A.65.65,0,0,1,61.308,373.935Zm0,0" transform="translate(-56.117 -349.011)" fill="#ffdf74"/>
    <path id="Path_3925" data-name="Path 3925" d="M60.463,293.982v-1.24a.65.65,0,0,0,0,1.24Zm0,0" transform="translate(-56.117 -273.702)" fill="#ffd551"/>
    <path id="Path_3926" data-name="Path 3926" d="M60.463,374.982v-1.24a.65.65,0,0,0,0,1.24Zm0,0" transform="translate(-56.117 -349.438)" fill="#ffd551"/>
    <path id="Path_3927" data-name="Path 3927" d="M60.463,212.982v-1.24a.65.65,0,0,0,0,1.24Zm0,0" transform="translate(-56.117 -197.966)" fill="#ffd551"/>
    <path id="Path_3928" data-name="Path 3928" d="M116.248,204.922a1.137,1.137,0,1,1-1.137-1.137A1.137,1.137,0,0,1,116.248,204.922Zm0,0" transform="translate(-106.575 -190.526)" fill="#f9bb32"/>
    <path id="Path_3929" data-name="Path 3929" d="M176.248,285.922a1.137,1.137,0,1,1-1.137-1.137A1.137,1.137,0,0,1,176.248,285.922Zm0,0" transform="translate(-162.676 -266.262)" fill="#f9bb32"/>
    <path id="Path_3930" data-name="Path 3930" d="M433.4,286.945a.39.39,0,0,1-.39-.39v-1.885a.39.39,0,1,1,.78,0v1.885A.39.39,0,0,1,433.4,286.945Zm0,0" transform="translate(-404.877 -265.791)" fill="#ffd551"/>
    <path id="Path_3931" data-name="Path 3931" d="M433.4,202.945a.39.39,0,0,1-.39-.39v-1.885a.39.39,0,0,1,.78,0v1.885A.39.39,0,0,1,433.4,202.945Zm0,0" transform="translate(-404.877 -187.25)" fill="#ffd551"/>
  </g>
</svg>
