<svg xmlns="http://www.w3.org/2000/svg" width="30.745" height="29.471" viewBox="0 0 30.745 29.471">
  <g id="food_1_" data-name="food (1)" transform="translate(0 -1.177)">
    <path id="Path_4163" data-name="Path 4163" d="M30.988,7.962a1.43,1.43,0,0,0-.751-1.25,3.222,3.222,0,0,0,.333-1.423A3.319,3.319,0,0,0,27.221,2a3.377,3.377,0,0,0-1.357.284,2.743,2.743,0,0,0-4.584.277A3.16,3.16,0,0,0,19.478,2a3.112,3.112,0,0,0-3.139,3.084,3.063,3.063,0,0,0,.025.375,3.058,3.058,0,0,0-.758,5.454,2.626,2.626,0,0,0-.523,1.572,2.7,2.7,0,0,0,2.72,2.673,2.74,2.74,0,0,0,1.667-.563,3.376,3.376,0,0,0,5.556-.147,2.306,2.306,0,0,0,1.986,1.122,2.282,2.282,0,0,0,2.3-2.262,2.216,2.216,0,0,0-.149-.795,2.262,2.262,0,0,0,1.4-2.083,2.217,2.217,0,0,0-.357-1.2A1.432,1.432,0,0,0,30.988,7.962Z" transform="translate(-6.527)" fill="#88c057"/>
    <path id="Path_4164" data-name="Path 4164" d="M12.371,19.529a2.708,2.708,0,0,1-3.815-2.436,2.626,2.626,0,0,1,.523-1.572,3.064,3.064,0,0,1-1.36-2.54,3.017,3.017,0,0,1,.351-1.415,2.326,2.326,0,0,0-3.042.546,2.365,2.365,0,0,0-2.673.438,2.265,2.265,0,0,0-.644,2.038,2.02,2.02,0,0,0-1.117.556,1.963,1.963,0,0,0,0,2.81,2.023,2.023,0,0,0,1.178.565,2.414,2.414,0,0,0,.692,2.138,2.516,2.516,0,0,0,2.307.655,1.661,1.661,0,0,0,.444,1.616,1.734,1.734,0,0,0,2.421,0,1.676,1.676,0,0,0,.347-.5,1.735,1.735,0,0,0,1.854-.37,1.662,1.662,0,0,0,.457-.818,1.1,1.1,0,0,0,1.083-.263,1.052,1.052,0,0,0,.274-1.045A2.531,2.531,0,0,0,12.371,19.529Z" transform="translate(0 -4.608)" fill="#659c35"/>
    <path id="Path_4165" data-name="Path 4165" d="M46.673,14.917a2.281,2.281,0,0,0-.215-.184,2.262,2.262,0,0,0-.446-2.626,2.359,2.359,0,0,0-2.075-.633,1.961,1.961,0,0,0-.566-1.1,2.049,2.049,0,0,0-2.861,0,1.94,1.94,0,0,0-.139.162c-.018.04-.033.082-.051.121a1.415,1.415,0,0,1-.023,2.512,2.22,2.22,0,0,1,.357,1.2,2.262,2.262,0,0,1-1.4,2.083,2.216,2.216,0,0,1,.149.795,2.282,2.282,0,0,1-2.3,2.262,2.319,2.319,0,0,1-.841-.16c.028.032.044.07.075.1a1.713,1.713,0,0,0,.832.45,1.052,1.052,0,0,0,.268,1.064,1.1,1.1,0,0,0,1.064.269,2.419,2.419,0,0,0,.587.92,2.522,2.522,0,0,0,3.521,0,2.43,2.43,0,0,0,.561-.85,2.042,2.042,0,0,0,1.75-.555,1.963,1.963,0,0,0,.513-1.959,2.334,2.334,0,0,0,1.248-.636A2.264,2.264,0,0,0,46.673,14.917Z" transform="translate(-16.611 -3.949)" fill="#659c35"/>
    <path id="Path_4166" data-name="Path 4166" d="M27.822,29.515a1.1,1.1,0,0,1-1.064-.269,1.042,1.042,0,0,1-.3-.6.958.958,0,0,0-.12-.344,21.3,21.3,0,0,0-3.606,6.228,17.034,17.034,0,0,0,.375-6.676,3.364,3.364,0,0,1-2.95.015c.949,3.354.407,8.828.407,8.828a16.126,16.126,0,0,0-4.3-7.617.718.718,0,0,0-.191.213,1.676,1.676,0,0,1-.292.384,1.734,1.734,0,0,1-1.854.37,1.676,1.676,0,0,1-.347.5,1.708,1.708,0,0,1-.611.383c2.72,0,5.841,5.415,6.243,11.191a.813.813,0,0,0,.812.754h2.709a.817.817,0,0,0,.812-.727c.249-2.2,1.016-11.385,5.28-11.385a2.514,2.514,0,0,1-.412-.325A2.443,2.443,0,0,1,27.822,29.515Z" transform="translate(-5.94 -12.224)" fill="#436b1c"/>
    <path id="Path_4167" data-name="Path 4167" d="M21.873,10.808a.539.539,0,0,1-.2-.037A2.656,2.656,0,0,1,23.61,5.822a.542.542,0,0,1-.395,1.009A1.572,1.572,0,0,0,22.07,9.76a.542.542,0,0,1-.2,1.047Z" transform="translate(-9.157 -2.045)" fill="#659c35"/>
    <path id="Path_4168" data-name="Path 4168" d="M46.988,22.225a2.662,2.662,0,0,1-2.433-1.592.542.542,0,0,1,.993-.435,1.572,1.572,0,1,0,2.88-1.261.542.542,0,1,1,.993-.435A2.656,2.656,0,0,1,48.053,22,2.671,2.671,0,0,1,46.988,22.225Z" transform="translate(-20.393 -7.79)" fill="#88c057"/>
    <path id="Path_4169" data-name="Path 4169" d="M33.373,19.591a2.657,2.657,0,0,1-2.316-1.349A.542.542,0,1,1,32,17.709a1.572,1.572,0,1,0,2.738-1.547.542.542,0,1,1,.943-.534,2.656,2.656,0,0,1-2.307,3.963Z" transform="translate(-14.197 -6.496)" fill="#659c35"/>
    <path id="Path_4170" data-name="Path 4170" d="M29.639,14.3a2.655,2.655,0,0,1-2.387-3.813.542.542,0,0,1,.976.472,1.572,1.572,0,0,0,2.83,1.37.542.542,0,0,1,.976.472A2.661,2.661,0,0,1,29.639,14.3Z" transform="translate(-12.365 -4.123)" fill="#659c35"/>
    <path id="Path_4171" data-name="Path 4171" d="M22.034,19.969A2.659,2.659,0,0,1,19.6,16.248a.542.542,0,1,1,.993.434,1.572,1.572,0,0,0,2.882,1.259.542.542,0,1,1,.993.434,2.663,2.663,0,0,1-2.434,1.594Z" transform="translate(-8.879 -6.757)" fill="#659c35"/>
    <path id="Path_4172" data-name="Path 4172" d="M33.563,8.637c-.086,0-.172,0-.258-.012a2.637,2.637,0,0,1-1.8-.954.542.542,0,0,1,.836-.69,1.572,1.572,0,0,0,2.426-2,.542.542,0,0,1,.836-.69,2.656,2.656,0,0,1-2.044,4.346Z" transform="translate(-14.38 -1.337)" fill="#659c35"/>
    <path id="Path_4173" data-name="Path 4173" d="M7.639,21.17a2.655,2.655,0,0,1-2.458-3.654.542.542,0,0,1,1,.407A1.572,1.572,0,1,0,9.1,19.106a.542.542,0,1,1,1,.407A2.662,2.662,0,0,1,7.639,21.17Z" transform="translate(-2.284 -7.332)" fill="#88c057"/>
  </g>
</svg>
