<svg xmlns="http://www.w3.org/2000/svg" width="29.745" height="29.828" viewBox="0 0 29.745 29.828">
  <g id="food_2_" data-name="food (2)" transform="translate(-0.71 0)">
    <circle id="Ellipse_401" data-name="Ellipse 401" cx="14.873" cy="14.873" r="14.873" transform="translate(0.71 0.008)" fill="#cdd6e0"/>
    <circle id="Ellipse_402" data-name="Ellipse 402" cx="10.721" cy="10.721" r="10.721" transform="translate(4.862 4.16)" fill="#acb3ba"/>
    <path id="Path_10876" data-name="Path 10876" d="M147.632.008a.543.543,0,0,0-.5.558V6.2a.558.558,0,0,1-1.115,0V.565a.506.506,0,0,0-.5-.558.57.57,0,0,0-.62.558V6.2a.555.555,0,0,1-.558.558h0a.555.555,0,0,1-.558-.558V.565a.506.506,0,0,0-.5-.558.57.57,0,0,0-.62.558V6.2a.555.555,0,0,1-.558.558h0a.555.555,0,0,1-.558-.558V.565a.506.506,0,0,0-.5-.558.57.57,0,0,0-.62.558V6.824a4.007,4.007,0,0,0,1.115,2.727,5.415,5.415,0,0,1,1.611,4.214L141.931,27.15v.434a2.384,2.384,0,0,0,2.789,2.107,2.45,2.45,0,0,0,1.921-2.665L145.463,13.7a5.333,5.333,0,0,1,1.611-4.214,3.892,3.892,0,0,0,1.115-2.727V.565A.555.555,0,0,0,147.632.008Z" transform="translate(-131.616 0)" fill="#f2f2f2"/>
    <path id="Path_10877" data-name="Path 10877" d="M170.642,240.137h-2.355l-1.177,13.2v.434a2.384,2.384,0,0,0,2.789,2.107,2.45,2.45,0,0,0,1.921-2.665Z" transform="translate(-156.733 -226.186)" fill="#40596b"/>
    <path id="Path_10878" data-name="Path 10878" d="M292.5.137s-2.665,1.053-3.78,9.048a18.7,18.7,0,0,0,1.487,9.543,2.9,2.9,0,0,1,.186,1.053l-.744,7.994v.372a1.96,1.96,0,0,0,2.169,1.735,2.04,2.04,0,0,0,1.611-2.169Z" transform="translate(-271.154 -0.129)" fill="#f2f2f2"/>
    <path id="Path_10879" data-name="Path 10879" d="M307.588,337.2v.124l-.744,7.994v.372a1.96,1.96,0,0,0,2.169,1.735,2.04,2.04,0,0,0,1.611-2.169l-.248-7.994h-2.789V337.2Z" transform="translate(-288.349 -317.614)" fill="#ff7058"/>
  </g>
</svg>
