<svg xmlns="http://www.w3.org/2000/svg" width="6.977" height="6.207" viewBox="0 0 6.977 6.207">
  <path id="heart_1_" data-name="heart (1)" d="M6.424.607A1.876,1.876,0,0,0,5.028,0a1.755,1.755,0,0,0-1.1.378,2.243,2.243,0,0,0-.443.463A2.241,2.241,0,0,0,3.046.378,1.755,1.755,0,0,0,1.949,0a1.876,1.876,0,0,0-1.4.607A2.181,2.181,0,0,0,0,2.1,2.6,2.6,0,0,0,.692,3.8,14.755,14.755,0,0,0,2.425,5.422c.24.2.512.436.795.683a.41.41,0,0,0,.539,0c.282-.247.555-.479.795-.684A14.746,14.746,0,0,0,6.285,3.8a2.6,2.6,0,0,0,.692-1.7A2.18,2.18,0,0,0,6.424.607Zm0,0" transform="translate(0)" fill="#ff5a5a"/>
</svg>
