<svg xmlns="http://www.w3.org/2000/svg" width="15.32" height="13.652" viewBox="0 0 15.32 13.652">
  <path id="heart" d="M7.56,13.452a.887.887,0,0,1-.585-.22c-.611-.534-1.2-1.036-1.719-1.479l0,0A31.974,31.974,0,0,1,1.5,8.228,5.628,5.628,0,0,1,0,4.544,4.726,4.726,0,0,1,1.2,1.316,4.066,4.066,0,0,1,4.224,0,3.8,3.8,0,0,1,6.6.82a4.86,4.86,0,0,1,.96,1,4.861,4.861,0,0,1,.961-1A3.8,3.8,0,0,1,10.9,0a4.066,4.066,0,0,1,3.024,1.316,4.726,4.726,0,0,1,1.2,3.228,5.627,5.627,0,0,1-1.5,3.684,31.971,31.971,0,0,1-3.754,3.523c-.52.443-1.11.946-1.722,1.482a.887.887,0,0,1-.584.219ZM4.224.886A3.19,3.19,0,0,0,1.851,1.917,3.844,3.844,0,0,0,.886,4.544a4.735,4.735,0,0,0,1.3,3.119,31.465,31.465,0,0,0,3.646,3.415l0,0c.522.444,1.113.948,1.728,1.486.619-.539,1.211-1.044,1.734-1.489a31.473,31.473,0,0,0,3.646-3.414,4.736,4.736,0,0,0,1.3-3.119,3.844,3.844,0,0,0-.965-2.627A3.19,3.19,0,0,0,10.9.886a2.937,2.937,0,0,0-1.834.635A4.3,4.3,0,0,0,8.04,2.7a.559.559,0,0,1-.96,0A4.294,4.294,0,0,0,6.058,1.521,2.937,2.937,0,0,0,4.224.886Zm0,0" transform="translate(0.1 0.1)" fill="#cdcdd7" stroke="#cdcdd7" stroke-width="0.2"/>
</svg>
