<svg id="home" xmlns="http://www.w3.org/2000/svg" width="22.401" height="21" viewBox="0 0 22.401 21">
  <path id="Path_9290" data-name="Path 9290" d="M56.889,205.265H42.013A2.015,2.015,0,0,1,40,203.252V192.663a.7.7,0,1,1,1.4,0v10.589a.613.613,0,0,0,.613.613H56.889a.613.613,0,0,0,.613-.613V192.663a.7.7,0,1,1,1.4,0v10.589A2.015,2.015,0,0,1,56.889,205.265Z" transform="translate(-38.25 -184.265)" fill="#11c4a1"/>
  <path id="Path_9291" data-name="Path 9291" d="M21.7,26.865a.7.7,0,0,1-.495-.205L12.5,17.954a1.84,1.84,0,0,0-2.6,0L1.2,26.66a.7.7,0,0,1-.99-.99l8.706-8.706a3.241,3.241,0,0,1,4.579,0L22.2,25.67a.7.7,0,0,1-.495,1.2Z" transform="translate(0 -16.017)" fill="#11c4a1"/>
  <path id="Path_9292" data-name="Path 9292" d="M182.3,297.084h-5.6a.7.7,0,0,1-.7-.7v-6.213a2.19,2.19,0,0,1,2.188-2.188h2.625A2.19,2.19,0,0,1,183,290.171v6.213A.7.7,0,0,1,182.3,297.084Zm-4.9-1.4h4.2v-5.513a.788.788,0,0,0-.788-.788h-2.625a.788.788,0,0,0-.788.788Z" transform="translate(-168.299 -276.084)" fill="#11c4a1"/>
</svg>
