<svg xmlns="http://www.w3.org/2000/svg" width="22.44" height="21.763" viewBox="0 0 22.44 21.763">
  <g id="list_1_" data-name="list (1)" transform="translate(0.25 0.25)">
    <path id="Path_1101" data-name="Path 1101" d="M39.681,30.324l-1.117-1.117a1.171,1.171,0,0,0-1.654,0l-6.03,6.03-.831,3.048-.2.2a.391.391,0,0,0,0,.55l0,.008.007,0a.39.39,0,0,0,.551,0l.2-.2,3.047-.831,6.03-6.03A1.171,1.171,0,0,0,39.681,30.324Zm-7.9,5.117L35.8,31.429l1.662,1.662L33.448,37.1Zm-.354.754,1.262,1.262-1.735.473Zm7.7-4.771-1.112,1.112-1.662-1.662,1.112-1.112a.387.387,0,0,1,.546,0l1.117,1.117A.386.386,0,0,1,39.127,31.424Z" transform="translate(-18.083 -17.895)" fill="#929292" stroke="#929292" stroke-width="0.5"/>
    <path id="Path_1102" data-name="Path 1102" d="M26.392,12.865a.392.392,0,1,0,0,.784h7.052a.392.392,0,1,0,0-.784Z" transform="translate(-15.814 -8.163)" fill="#929292" stroke="#929292" stroke-width="0.5"/>
    <path id="Path_1103" data-name="Path 1103" d="M33.836,27.257a.392.392,0,0,0-.392-.392H26.392a.392.392,0,1,0,0,.784h7.052A.392.392,0,0,0,33.836,27.257Z" transform="translate(-15.814 -16.678)" fill="#929292" stroke="#929292" stroke-width="0.5"/>
    <path id="Path_1104" data-name="Path 1104" d="M12.624,7.959A.391.391,0,0,0,12.072,8L9.624,10.857l-1.5-1.123a.392.392,0,1,0-.47.626L9.447,11.7a.392.392,0,0,0,.533-.059l2.686-3.134A.391.391,0,0,0,12.624,7.959Z" transform="translate(-4.561 -5.122)" fill="#929292" stroke="#929292" stroke-width="0.5"/>
    <path id="Path_1105" data-name="Path 1105" d="M12.624,21.959a.391.391,0,0,0-.552.042L9.624,24.857l-1.5-1.123a.392.392,0,1,0-.47.626L9.447,25.7a.392.392,0,0,0,.533-.059l2.686-3.134A.391.391,0,0,0,12.624,21.959Z" transform="translate(-4.561 -13.637)" fill="#929292" stroke="#929292" stroke-width="0.5"/>
    <path id="Path_1106" data-name="Path 1106" d="M12.072,37,9.624,39.856l-1.5-1.123a.392.392,0,1,0-.47.626L9.447,40.7a.392.392,0,0,0,.533-.059l2.686-3.134a.392.392,0,1,0-.6-.509Z" transform="translate(-4.561 -22.76)" fill="#929292" stroke="#929292" stroke-width="0.5"/>
    <path id="Path_1107" data-name="Path 1107" d="M9.795,21.237H4.77A3.991,3.991,0,0,1,.784,17.251V5.634A3.991,3.991,0,0,1,4.77,1.648H16.386a3.991,3.991,0,0,1,3.987,3.986v4.632a.392.392,0,0,0,.784,0V5.634a4.776,4.776,0,0,0-4.77-4.77H4.77A4.776,4.776,0,0,0,0,5.634V17.25a4.776,4.776,0,0,0,4.77,4.77H9.795a.392.392,0,1,0,0-.783Z" transform="translate(0 -0.864)" fill="#929292" stroke="#929292" stroke-width="0.5"/>
  </g>
</svg>
