<svg xmlns="http://www.w3.org/2000/svg" width="13.843" height="17.566" viewBox="0 0 13.843 17.566">
  <g id="list_4_" data-name="list (4)" transform="translate(0.1 0.101)">
    <g id="Group_2298" data-name="Group 2298" transform="translate(0 0)">
      <g id="Group_2297" data-name="Group 2297">
        <path id="Path_9293" data-name="Path 9293" d="M58.944,2.275H57.373v-.7c0-.227-.248-.331-.475-.331h-1.22A1.849,1.849,0,0,0,53.838,0,1.881,1.881,0,0,0,52,1.242H50.8c-.227,0-.455.1-.455.331v.7H48.773A1.757,1.757,0,0,0,47.037,3.95V15.795a1.663,1.663,0,0,0,1.736,1.571h10.17a1.663,1.663,0,0,0,1.736-1.571V3.95A1.757,1.757,0,0,0,58.944,2.275Zm-7.773-.207h1.137A.455.455,0,0,0,52.7,1.7a1.2,1.2,0,0,1,1.137-.93,1.178,1.178,0,0,1,1.116.93.455.455,0,0,0,.413.372h1.178V3.722H51.171Zm8.682,13.726a.839.839,0,0,1-.91.744H48.773a.838.838,0,0,1-.91-.744V3.95a.93.93,0,0,1,.91-.848h1.571V4.157a.434.434,0,0,0,.455.393h6.1a.455.455,0,0,0,.475-.393V3.1h1.571a.93.93,0,0,1,.91.848V15.795Z" transform="translate(-47.037 0)" fill="#cdcdd7" stroke="#cdcdd7" stroke-width="0.2"/>
        <path id="Path_9294" data-name="Path 9294" d="M102.54,230.44a.413.413,0,0,0-.579-.021l-1.323,1.261-.558-.579a.413.413,0,0,0-.579-.021.434.434,0,0,0,0,.6l.848.868a.372.372,0,0,0,.289.124.413.413,0,0,0,.289-.124l1.612-1.53a.393.393,0,0,0,.024-.555Z" transform="translate(-97.31 -221.199)" fill="#cdcdd7" stroke="#cdcdd7" stroke-width="0.2"/>
        <path id="Path_9295" data-name="Path 9295" d="M203.716,256.034h-4.754a.413.413,0,1,0,0,.827h4.754a.413.413,0,0,0,0-.827Z" transform="translate(-192.553 -245.904)" fill="#cdcdd7" stroke="#cdcdd7" stroke-width="0.2"/>
        <path id="Path_9296" data-name="Path 9296" d="M102.54,146.848a.413.413,0,0,0-.579-.021l-1.323,1.261-.558-.579a.413.413,0,0,0-.579-.021.434.434,0,0,0,0,.6l.848.868a.372.372,0,0,0,.289.124.413.413,0,0,0,.289-.124l1.612-1.53a.393.393,0,0,0,.024-.555Z" transform="translate(-97.31 -140.914)" fill="#cdcdd7" stroke="#cdcdd7" stroke-width="0.2"/>
        <path id="Path_9297" data-name="Path 9297" d="M203.716,172.442h-4.754a.413.413,0,1,0,0,.827h4.754a.413.413,0,0,0,0-.827Z" transform="translate(-192.553 -165.619)" fill="#cdcdd7" stroke="#cdcdd7" stroke-width="0.2"/>
        <path id="Path_9298" data-name="Path 9298" d="M102.54,314.032a.413.413,0,0,0-.579-.021l-1.323,1.261-.558-.579a.413.413,0,0,0-.579-.021.434.434,0,0,0,0,.6l.848.868a.372.372,0,0,0,.289.124.413.413,0,0,0,.289-.124l1.612-1.53a.393.393,0,0,0,.024-.555Z" transform="translate(-97.31 -301.483)" fill="#cdcdd7" stroke="#cdcdd7" stroke-width="0.2"/>
        <path id="Path_9299" data-name="Path 9299" d="M203.716,339.626h-4.754a.413.413,0,1,0,0,.827h4.754a.413.413,0,0,0,0-.827Z" transform="translate(-192.553 -326.188)" fill="#cdcdd7" stroke="#cdcdd7" stroke-width="0.2"/>
      </g>
    </g>
  </g>
</svg>
