<svg id="place_1_" data-name="place (1)" xmlns="http://www.w3.org/2000/svg" width="13.844" height="17.112" viewBox="0 0 13.844 17.112">
  <g id="Group_2300" data-name="Group 2300" transform="translate(0)">
    <g id="Group_2299" data-name="Group 2299">
      <path id="Path_9300" data-name="Path 9300" d="M61.488,2.975a6.909,6.909,0,0,0-11.36,0,6.91,6.91,0,0,0-.8,6.367,5.442,5.442,0,0,0,1,1.656l5.026,5.9a.6.6,0,0,0,.911,0L61.288,11a5.447,5.447,0,0,0,1-1.654A6.911,6.911,0,0,0,61.488,2.975ZM61.17,8.927a4.268,4.268,0,0,1-.789,1.293l0,0-4.57,5.368-4.573-5.371a4.271,4.271,0,0,1-.791-1.3,5.716,5.716,0,0,1,.668-5.267,5.712,5.712,0,0,1,9.391,0A5.717,5.717,0,0,1,61.17,8.927Z" transform="translate(-48.886)" fill="#11c4a1"/>
    </g>
  </g>
  <g id="Group_2302" data-name="Group 2302" transform="translate(3.572 3.55)">
    <g id="Group_2301" data-name="Group 2301">
      <path id="Path_9301" data-name="Path 9301" d="M159.1,106.219a3.351,3.351,0,1,0,3.351,3.351A3.354,3.354,0,0,0,159.1,106.219Zm0,5.5a2.154,2.154,0,1,1,2.154-2.154A2.156,2.156,0,0,1,159.1,111.723Z" transform="translate(-155.754 -106.219)" fill="#11c4a1"/>
    </g>
  </g>
</svg>
