<svg xmlns="http://www.w3.org/2000/svg" width="27.534" height="29.234" viewBox="0 0 27.534 29.234">
  <g id="shopping-bag_1_" data-name="shopping-bag (1)" transform="translate(-14.893)">
    <path id="Path_10958" data-name="Path 10958" d="M28.8,176.37l1.253-11.379a.683.683,0,0,1,.679-.608h4.558l-.714-6.57a1.081,1.081,0,0,0-1.075-.964H17.96a1.081,1.081,0,0,0-1.075.964L14.9,175.928a1.081,1.081,0,0,0,1.075,1.2H29.481A.683.683,0,0,1,28.8,176.37Z" transform="translate(0 -147.893)" fill="#7fb3fa"/>
    <path id="Path_10959" data-name="Path 10959" d="M19.039,175.929l1.985-18.116a1.081,1.081,0,0,1,1.075-.964H17.96a1.082,1.082,0,0,0-1.075.964L14.9,175.929a1.081,1.081,0,0,0,1.075,1.2h4.139A1.081,1.081,0,0,1,19.039,175.929Z" transform="translate(0 -147.894)" fill="#64a6f4"/>
    <g id="Group_3675" data-name="Group 3675" transform="translate(19.689)">
      <path id="Path_10960" data-name="Path 10960" d="M110.538,11.75a.435.435,0,0,1-.435-.435V6.043a5.174,5.174,0,1,0-10.347,0v5.272a.435.435,0,1,1-.869,0V6.043a6.043,6.043,0,0,1,12.086,0v5.272A.435.435,0,0,1,110.538,11.75Z" transform="translate(-98.887 0)" fill="#b5dcff"/>
    </g>
    <g id="Group_3676" data-name="Group 3676" transform="translate(18.709 10.94)">
      <path id="Path_10961" data-name="Path 10961" d="M83.145,194.431a1.414,1.414,0,1,1,1.414-1.414A1.416,1.416,0,0,1,83.145,194.431Zm0-1.959a.545.545,0,1,0,.545.545A.546.546,0,0,0,83.145,192.472Z" transform="translate(-81.731 -191.603)" fill="#dbedff"/>
    </g>
    <g id="Group_3677" data-name="Group 3677" transform="translate(29.926 10.94)">
      <path id="Path_10962" data-name="Path 10962" d="M279.589,194.431A1.414,1.414,0,1,1,281,193.017,1.416,1.416,0,0,1,279.589,194.431Zm0-1.959a.545.545,0,1,0,.545.545A.546.546,0,0,0,279.589,192.472Z" transform="translate(-278.175 -191.603)" fill="#dbedff"/>
    </g>
    <path id="Path_10963" data-name="Path 10963" d="M271.091,299.819l-1.253-11.437a.683.683,0,0,0-.679-.608h-9.814a.683.683,0,0,0-.679.608l-1.253,11.437a.683.683,0,0,0,.679.757h12.321A.683.683,0,0,0,271.091,299.819Z" transform="translate(-228.668 -271.342)" fill="#ff94d5"/>
    <path id="Path_10964" data-name="Path 10964" d="M261.552,299.819l1.253-11.437a.683.683,0,0,1,.679-.608h-4.139a.683.683,0,0,0-.679.608l-1.253,11.437a.683.683,0,0,0,.679.757h4.139A.683.683,0,0,1,261.552,299.819Z" transform="translate(-228.668 -271.342)" fill="#ff72c7"/>
    <g id="Group_3678" data-name="Group 3678" transform="translate(31.962 19.437)">
      <path id="Path_10965" data-name="Path 10965" d="M317.447,347.049a3.626,3.626,0,0,1-3.622-3.622v-2.578a.435.435,0,1,1,.869,0v2.578a2.753,2.753,0,1,0,5.505,0v-2.578a.435.435,0,1,1,.869,0v2.578A3.626,3.626,0,0,1,317.447,347.049Z" transform="translate(-313.825 -340.414)" fill="#b5dcff"/>
    </g>
    <g id="Group_3679" data-name="Group 3679" transform="translate(37.409 17.524)">
      <path id="Path_10966" data-name="Path 10966" d="M410.6,309.632a1.361,1.361,0,1,1,1.361-1.361A1.363,1.363,0,0,1,410.6,309.632Zm0-1.853a.492.492,0,1,0,.492.492A.493.493,0,0,0,410.6,307.778Z" transform="translate(-409.238 -306.909)" fill="#dbedff"/>
    </g>
    <g id="Group_3680" data-name="Group 3680" transform="translate(31.035 17.524)">
      <path id="Path_10967" data-name="Path 10967" d="M298.955,309.632a1.361,1.361,0,1,1,1.361-1.361A1.363,1.363,0,0,1,298.955,309.632Zm0-1.853a.492.492,0,1,0,.492.492A.493.493,0,0,0,298.955,307.778Z" transform="translate(-297.594 -306.909)" fill="#dbedff"/>
    </g>
  </g>
</svg>
