<svg xmlns="http://www.w3.org/2000/svg" width="15.044" height="13.173" viewBox="0 0 15.044 13.173">
  <g id="shop" transform="translate(0.15 -30.9)">
    <g id="Group_2306" data-name="Group 2306" transform="translate(0 31.05)">
      <path id="Path_9307" data-name="Path 9307" d="M251.2,263.75h-2a1,1,0,0,0-.994.994v1.536a1,1,0,0,0,.994.994h2a1,1,0,0,0,.994-.994v-1.536A1,1,0,0,0,251.2,263.75Zm.271,2.531a.272.272,0,0,1-.271.271h-2a.272.272,0,0,1-.271-.271v-1.536a.272.272,0,0,1,.271-.271h2a.272.272,0,0,1,.271.271Z" transform="translate(-240.723 -256.74)" fill="#cdcdd7" stroke="#cdcdd7" stroke-width="0.3"/>
      <path id="Path_9308" data-name="Path 9308" d="M14.744,35.268a.336.336,0,0,0-.048-.178L12.5,31.234a.363.363,0,0,0-.313-.184H2.552a.357.357,0,0,0-.313.184L.048,35.09A.365.365,0,0,0,0,35.268,2.115,2.115,0,0,0,1.265,37.2v6.36a.363.363,0,0,0,.362.362H13.114a.363.363,0,0,0,.362-.362V37.247a.159.159,0,0,0,0-.039A2.121,2.121,0,0,0,14.744,35.268ZM2.763,31.776h9.216l1.714,3.016H1.051Zm7.73,3.736a1.389,1.389,0,0,1-2.735,0Zm-3.5,0a1.391,1.391,0,0,1-2.738,0Zm-6.242,0H3.486a1.391,1.391,0,0,1-2.738,0ZM6.073,43.2H3.995V39.3a.515.515,0,0,1,.515-.515H5.561a.515.515,0,0,1,.515.515v3.9Zm6.679,0H6.8V39.3A1.24,1.24,0,0,0,5.558,38.06H4.507A1.24,1.24,0,0,0,3.269,39.3v3.9H1.988V37.38c.042,0,.084,0,.127,0a2.112,2.112,0,0,0,1.753-.934,2.113,2.113,0,0,0,3.507,0,2.107,2.107,0,0,0,3.5,0,2.112,2.112,0,0,0,1.753.934c.042,0,.081,0,.124,0V43.2Zm-.124-6.54a1.389,1.389,0,0,1-1.368-1.145H14A1.4,1.4,0,0,1,12.629,36.66Z" transform="translate(0 -31.05)" fill="#cdcdd7" stroke="#cdcdd7" stroke-width="0.3"/>
    </g>
  </g>
</svg>
