<svg xmlns="http://www.w3.org/2000/svg" width="15.125" height="17.23" viewBox="0 0 15.125 17.23">
  <g id="support" transform="translate(-0.75 0.25)">
    <g id="Group_2303" data-name="Group 2303" transform="translate(1)">
      <path id="Path_9302" data-name="Path 9302" d="M39.516,5.723a5.723,5.723,0,1,0-11.446,0A1.726,1.726,0,0,0,26.48,7.6v2.989A1.775,1.775,0,0,0,28.388,12.5h.922a.318.318,0,0,0,.318-.318V6.022A.318.318,0,0,0,29.31,5.7h-.6a5.087,5.087,0,1,1,10.174,0h-.6a.318.318,0,0,0-.318.318v6.146a.318.318,0,0,0,.318.318h.6c-.089,2.184-1.138,2.7-3.233,2.788v-.213a.636.636,0,0,0-.636-.636h-2a.636.636,0,0,0-.636.636v1.033a.636.636,0,0,0,.636.636h2.006a.636.636,0,0,0,.636-.636V15.91c2.016-.092,3.758-.509,3.863-3.443a1.726,1.726,0,0,0,1.59-1.876V7.6A1.723,1.723,0,0,0,39.516,5.723Zm-10.524.595V11.85h-.62A1.154,1.154,0,0,1,27.1,10.578V7.589a1.156,1.156,0,0,1,1.272-1.272Zm6.025,9.3V16.1H33.01V15.064h2.006Zm5.453-5.027A1.156,1.156,0,0,1,39.2,11.859h-.6V6.34h.62a1.154,1.154,0,0,1,1.272,1.272Z" transform="translate(-26.48 0)" fill="#cdcdd8" stroke="#cdcdd8" stroke-width="0.5"/>
    </g>
  </g>
</svg>
