<svg id="user_1_" data-name="user (1)" xmlns="http://www.w3.org/2000/svg" width="17.536" height="21.019" viewBox="0 0 17.536 21.019">
  <path id="Path_9303" data-name="Path 9303" d="M92.094,10.125a4.9,4.9,0,0,0,3.58-1.483,4.9,4.9,0,0,0,1.483-3.579,4.9,4.9,0,0,0-1.483-3.579,5.061,5.061,0,0,0-7.159,0,4.9,4.9,0,0,0-1.483,3.579,4.9,4.9,0,0,0,1.483,3.58,4.9,4.9,0,0,0,3.579,1.483ZM89.386,2.354a3.829,3.829,0,0,1,5.417,0,3.66,3.66,0,0,1,1.122,2.708A3.66,3.66,0,0,1,94.8,7.771a3.829,3.829,0,0,1-5.417,0,3.659,3.659,0,0,1-1.123-2.708,3.66,3.66,0,0,1,1.123-2.708Zm0,0" transform="translate(-83.459 0)" fill="#929292"/>
  <path id="Path_9304" data-name="Path 9304" d="M17.493,253.326a12.5,12.5,0,0,0-.17-1.328A10.463,10.463,0,0,0,17,250.662a6.6,6.6,0,0,0-.549-1.245,4.7,4.7,0,0,0-.828-1.079,3.649,3.649,0,0,0-1.189-.747,4.11,4.11,0,0,0-1.518-.275,1.541,1.541,0,0,0-.823.349c-.247.161-.535.347-.857.553a4.91,4.91,0,0,1-1.109.489,4.307,4.307,0,0,1-2.713,0,4.9,4.9,0,0,1-1.108-.488c-.319-.2-.608-.39-.858-.553a1.539,1.539,0,0,0-.822-.349,4.1,4.1,0,0,0-1.518.275,3.647,3.647,0,0,0-1.189.747,4.7,4.7,0,0,0-.827,1.079,6.608,6.608,0,0,0-.549,1.246A10.487,10.487,0,0,0,.212,252a12.419,12.419,0,0,0-.17,1.329c-.028.4-.042.819-.042,1.241a3.49,3.49,0,0,0,1.037,2.64,3.731,3.731,0,0,0,2.671.974H13.828a3.732,3.732,0,0,0,2.671-.974,3.489,3.489,0,0,0,1.037-2.641c0-.423-.014-.841-.042-1.241Zm-1.844,2.99a2.512,2.512,0,0,1-1.822.635H3.708a2.512,2.512,0,0,1-1.822-.635,2.279,2.279,0,0,1-.654-1.748c0-.394.013-.783.039-1.156a11.2,11.2,0,0,1,.154-1.2,9.251,9.251,0,0,1,.287-1.177,5.38,5.38,0,0,1,.447-1.013,3.48,3.48,0,0,1,.608-.8,2.422,2.422,0,0,1,.791-.492,2.835,2.835,0,0,1,.97-.187c.043.023.12.067.244.148.253.165.545.353.868.559a6.1,6.1,0,0,0,1.392.622,5.538,5.538,0,0,0,3.471,0,6.11,6.11,0,0,0,1.393-.623c.33-.211.614-.394.867-.559.124-.081.2-.125.244-.148a2.836,2.836,0,0,1,.97.187,2.425,2.425,0,0,1,.791.492,3.472,3.472,0,0,1,.608.8,5.363,5.363,0,0,1,.447,1.012,9.229,9.229,0,0,1,.287,1.177,11.3,11.3,0,0,1,.154,1.2h0c.026.372.039.761.039,1.156a2.279,2.279,0,0,1-.654,1.748Zm0,0" transform="translate(0 -237.163)" fill="#929292"/>
</svg>
