<svg id="user_1_" data-name="user (1)" xmlns="http://www.w3.org/2000/svg" width="14.418" height="17.281" viewBox="0 0 14.418 17.281">
  <path id="Path_9303" data-name="Path 9303" d="M91.194,8.325a4.028,4.028,0,0,0,2.943-1.219,4.028,4.028,0,0,0,1.219-2.943,4.028,4.028,0,0,0-1.219-2.943,4.161,4.161,0,0,0-5.886,0,4.028,4.028,0,0,0-1.219,2.943,4.028,4.028,0,0,0,1.219,2.943,4.029,4.029,0,0,0,2.943,1.219ZM88.967,1.936a3.149,3.149,0,0,1,4.454,0,3.009,3.009,0,0,1,.923,2.227,3.009,3.009,0,0,1-.923,2.227,3.148,3.148,0,0,1-4.454,0,3.009,3.009,0,0,1-.923-2.227,3.009,3.009,0,0,1,.923-2.227Zm0,0" transform="translate(-84.094 0)" fill="#cdcdd8"/>
  <path id="Path_9304" data-name="Path 9304" d="M14.383,252.257a10.282,10.282,0,0,0-.14-1.092,8.6,8.6,0,0,0-.269-1.1,5.423,5.423,0,0,0-.451-1.024,3.86,3.86,0,0,0-.68-.887,3,3,0,0,0-.978-.614,3.379,3.379,0,0,0-1.248-.226,1.267,1.267,0,0,0-.677.287c-.2.132-.44.285-.7.454a4.037,4.037,0,0,1-.912.4,3.541,3.541,0,0,1-2.231,0,4.025,4.025,0,0,1-.911-.4c-.262-.168-.5-.321-.705-.455a1.265,1.265,0,0,0-.676-.287,3.375,3.375,0,0,0-1.248.226,3,3,0,0,0-.978.614,3.861,3.861,0,0,0-.68.887,5.433,5.433,0,0,0-.451,1.024,8.623,8.623,0,0,0-.268,1.1,10.211,10.211,0,0,0-.14,1.092c-.023.33-.035.673-.035,1.02a2.87,2.87,0,0,0,.852,2.171,3.068,3.068,0,0,0,2.2.8h8.321a3.068,3.068,0,0,0,2.2-.8,2.869,2.869,0,0,0,.852-2.171c0-.348-.012-.692-.035-1.021Zm-1.516,2.458a2.065,2.065,0,0,1-1.5.522H3.048a2.066,2.066,0,0,1-1.5-.522,1.874,1.874,0,0,1-.538-1.437c0-.324.011-.644.032-.951a9.21,9.21,0,0,1,.127-.983,7.606,7.606,0,0,1,.236-.968,4.423,4.423,0,0,1,.367-.833,2.861,2.861,0,0,1,.5-.655,1.991,1.991,0,0,1,.65-.4,2.33,2.33,0,0,1,.8-.154c.035.019.1.055.2.122.208.136.448.29.713.46a5.018,5.018,0,0,0,1.145.511,4.553,4.553,0,0,0,2.854,0,5.024,5.024,0,0,0,1.145-.512c.271-.174.5-.324.713-.46.1-.067.165-.1.2-.122a2.332,2.332,0,0,1,.8.154,1.994,1.994,0,0,1,.65.4,2.854,2.854,0,0,1,.5.656,4.408,4.408,0,0,1,.367.832,7.588,7.588,0,0,1,.236.968,9.288,9.288,0,0,1,.127.984h0c.021.306.032.625.032.95a1.874,1.874,0,0,1-.538,1.437Zm0,0" transform="translate(0 -238.969)" fill="#cdcdd8"/>
</svg>
