<svg xmlns="http://www.w3.org/2000/svg" width="34.161" height="29.856" viewBox="0 0 34.161 29.856">
  <g id="vegetable" transform="translate(-0.002 -3.605)">
    <path id="Path_3968" data-name="Path 3968" d="M17.344,43.13h6.541a.761.761,0,0,0,.652-1.154l-.006-.01a2.387,2.387,0,0,1-.128-2.315,3.362,3.362,0,0,1,1.54-1.484c4.609-2.2,7.878-4.66,8.217-9.677a.825.825,0,0,0-.818-.884H.822A.825.825,0,0,0,0,28.49c.34,5.016,3.608,7.476,8.217,9.677a3.362,3.362,0,0,1,1.54,1.484,2.387,2.387,0,0,1-.128,2.315l-.006.01a.761.761,0,0,0,.652,1.154h7.066Z" transform="translate(0 -9.67)" fill="#e6e6e6"/>
    <path id="Path_3969" data-name="Path 3969" d="M32.089,46.8h-5.2a.6.6,0,1,1,0-1.194h5.2a.6.6,0,1,1,0,1.194Z" transform="translate(-10.592 -16.921)" fill="#fff"/>
    <path id="Path_3970" data-name="Path 3970" d="M22.619,46.8H20.6a.6.6,0,1,1,0-1.194h2.022a.6.6,0,1,1,0,1.194Z" transform="translate(-8.057 -16.921)" fill="#fff"/>
    <path id="Path_3971" data-name="Path 3971" d="M29.554,49.8H20.6a.6.6,0,0,1,0-1.194h8.957a.6.6,0,1,1,0,1.194Z" transform="translate(-8.057 -18.13)" fill="#fff"/>
    <path id="Path_3972" data-name="Path 3972" d="M37.374,3.6a5.359,5.359,0,0,0-5.23,6.593,1.026,1.026,0,0,0,1.17.23l.234-.108a1.037,1.037,0,0,1,1.469.848l.023.257a1.037,1.037,0,0,0,.94.94l.257.023a1.037,1.037,0,0,1,.848,1.469l-.108.234a.993.993,0,0,0-.063.239c.152.013.305.023.46.023a5.374,5.374,0,1,0,0-10.748Z" transform="translate(-12.892 0)" fill="#d13834"/>
    <path id="Path_3973" data-name="Path 3973" d="M46.034,13.119a5.37,5.37,0,0,1-5.358,5.067c-.155,0-.309-.007-.462-.02a1.026,1.026,0,0,0,.407,1.042l.211.149a1.037,1.037,0,0,1,0,1.7l-.211.149a1.026,1.026,0,0,0-.385.538l.024.029h7.995a5.362,5.362,0,0,0-2.221-8.65Z" transform="translate(-16.193 -3.833)" fill="#436b1c"/>
    <path id="Path_3974" data-name="Path 3974" d="M38.043,10.246a.6.6,0,0,1-.422-.175L35.932,8.382a.6.6,0,0,1,.844-.844l1.689,1.689a.6.6,0,0,1-.422,1.019Z" transform="translate(-14.405 -1.514)" fill="#ed3f32"/>
    <path id="Path_3975" data-name="Path 3975" d="M43.7,15.9a.6.6,0,0,1-.422-.175l-1.689-1.689a.6.6,0,1,1,.844-.844l1.689,1.689A.6.6,0,0,1,43.7,15.9Z" transform="translate(-16.684 -3.793)" fill="#ed3f32"/>
    <path id="Path_3976" data-name="Path 3976" d="M42.011,10.246a.6.6,0,0,1-.422-1.019l1.689-1.689a.6.6,0,0,1,.844.844l-1.689,1.689A.6.6,0,0,1,42.011,10.246Z" transform="translate(-16.684 -1.514)" fill="#ed3f32"/>
    <path id="Path_3977" data-name="Path 3977" d="M36.854,15.6a.6.6,0,0,1-.422-1.019l1.391-1.39a.6.6,0,0,1,.844.844l-1.391,1.39A.593.593,0,0,1,36.854,15.6Z" transform="translate(-14.607 -3.793)" fill="#ed3f32"/>
    <path id="Path_3978" data-name="Path 3978" d="M50.986,20.8H48.6a.6.6,0,0,1,0-1.194h2.388a.6.6,0,1,1,0,1.194Z" transform="translate(-19.338 -6.446)" fill="#659c35"/>
    <path id="Path_3979" data-name="Path 3979" d="M46.6,25.188a.6.6,0,0,1-.6-.6V22.2a.6.6,0,0,1,1.194,0v2.388A.6.6,0,0,1,46.6,25.188Z" transform="translate(-18.532 -7.252)" fill="#659c35"/>
    <path id="Path_3980" data-name="Path 3980" d="M23.375,16.364A1.038,1.038,0,0,1,24,17.79l-.108.234a1.037,1.037,0,0,0,.344,1.284l.211.149a1.037,1.037,0,0,1,0,1.7l-.211.149a1.035,1.035,0,0,0-.4.568h9.554a1.034,1.034,0,0,1,.4-.568L34,21.153a1.037,1.037,0,0,0,0-1.7l-.211-.149a1.038,1.038,0,0,1-.344-1.284l.108-.234a1.037,1.037,0,0,0-.848-1.469l-.257-.023a1.039,1.039,0,0,1-.94-.94l-.023-.257a1.037,1.037,0,0,0-1.469-.848l-.233.107a1.037,1.037,0,0,1-1.284-.344l-.149-.211a1.037,1.037,0,0,0-1.7,0l-.149.211a1.037,1.037,0,0,1-1.284.344l-.234-.109a1.037,1.037,0,0,0-1.469.848l-.023.257a2.431,2.431,0,0,1-.235.752A.184.184,0,0,0,23.375,16.364Z" transform="translate(-9.365 -3.932)" fill="#88c057"/>
    <path id="Path_3981" data-name="Path 3981" d="M12.325,10.075l3.439-4.881a1.8,1.8,0,0,1,2.5-.432h0a1.8,1.8,0,0,1,.432,2.5l-3.439,4.881a1.8,1.8,0,0,1-2.5.432h0A1.8,1.8,0,0,1,12.325,10.075Z" transform="translate(-4.834 -0.335)" fill="#a46f3e"/>
    <path id="Path_3982" data-name="Path 3982" d="M16.2,19.988l-.211-.149a1.037,1.037,0,0,1-.344-1.284l.108-.234a1.037,1.037,0,0,0-.848-1.469l-.257-.023a1.037,1.037,0,0,1-.94-.94l-.023-.257a1.035,1.035,0,0,0-1.041-.939l-1.109,1.575a1.8,1.8,0,0,1-2.5.432h0a1.8,1.8,0,0,1-.719-1.837,1.025,1.025,0,0,1-.9.029l-.234-.109a1.037,1.037,0,0,0-1.469.848l-.023.257a1.037,1.037,0,0,1-.94.94l-.257.023a1.037,1.037,0,0,0-.848,1.469l.108.234a1.037,1.037,0,0,1-.344,1.284l-.211.149a1.038,1.038,0,0,0,0,1.7l.211.149a1.031,1.031,0,0,1,.4.567H15.588a1.032,1.032,0,0,1,.4-.567l.211-.149A1.036,1.036,0,0,0,16.2,19.988Z" transform="translate(-1.112 -4.465)" fill="#fbd490"/>
    <path id="Path_3983" data-name="Path 3983" d="M29.1,19.695a.6.6,0,0,1-.422-1.019l.9-.9a.6.6,0,0,1,.844.844l-.9.9A.6.6,0,0,1,29.1,19.695Z" transform="translate(-11.481 -5.64)" fill="#436b1c"/>
    <path id="Path_3984" data-name="Path 3984" d="M34.194,22.4a.6.6,0,0,1-.422-.175l-.6-.6a.6.6,0,1,1,.844-.844l.6.6a.6.6,0,0,1-.422,1.019Z" transform="translate(-13.294 -6.849)" fill="#436b1c"/>
    <path id="Path_3985" data-name="Path 3985" d="M29.6,24.4a.6.6,0,0,1-.422-1.019l.6-.6a.6.6,0,1,1,.844.844l-.6.6A.6.6,0,0,1,29.6,24.4Z" transform="translate(-11.683 -7.655)" fill="#436b1c"/>
  </g>
</svg>
