<svg xmlns="http://www.w3.org/2000/svg" width="14.833" height="14.836" viewBox="0 0 14.833 14.836">
  <g id="wallet" transform="translate(0.1 0.103)">
    <g id="Group_2305" data-name="Group 2305" transform="translate(0 0)">
      <g id="Group_2304" data-name="Group 2304">
        <path id="Path_9305" data-name="Path 9305" d="M13.971,7.378V5.321A1.327,1.327,0,0,0,12.747,4L10.837.666A1.316,1.316,0,0,0,9.031.179L2.483,3.991H1.333A1.332,1.332,0,0,0,0,5.321V13.3a1.332,1.332,0,0,0,1.33,1.33H12.641a1.332,1.332,0,0,0,1.33-1.33V11.246a1,1,0,0,0,.665-.936v-2A1,1,0,0,0,13.971,7.378Zm-2-3.387h-2.9l2.174-1.266ZM10.919,2.148,7.753,3.991H6.44l4.15-2.416ZM9.366.754A.643.643,0,0,1,9.86.688a.652.652,0,0,1,.4.309h0L5.118,3.991H3.805ZM13.306,13.3a.666.666,0,0,1-.665.665H1.333A.666.666,0,0,1,.668,13.3V5.321a.666.666,0,0,1,.665-.665H12.641a.666.666,0,0,1,.665.665v2h-2a2,2,0,1,0,0,3.991h2Zm.665-2.993a.333.333,0,0,1-.333.333H11.31a1.33,1.33,0,0,1,0-2.661h2.328a.333.333,0,0,1,.333.333Z" transform="translate(-0.003 0)" fill="#cdcdd8" stroke="#cdcdd8" stroke-width="0.2"/>
        <path id="Path_9306" data-name="Path 9306" d="M342,277.341a.665.665,0,1,0,.665.665A.666.666,0,0,0,342,277.341Z" transform="translate(-330.695 -268.694)" fill="#cdcdd8" stroke="#cdcdd8" stroke-width="0.2"/>
      </g>
    </g>
  </g>
</svg>
